<?xml version="1.0" encoding="UTF-8" standalone="no"?>
<!-- Created with Inkscape (http://www.inkscape.org/) -->

<svg
   width="8.4954271mm"
   height="13.286939mm"
   viewBox="0 0 8.4954271 13.286939"
   version="1.1"
   id="svg1"
   xml:space="preserve"
   inkscape:version="1.4.2 (2aeb623e1d, 2025-05-12)"
   sodipodi:docname="logo.svg"
   inkscape:export-filename="../9dd393e7/favicon.svg"
   inkscape:export-xdpi="96"
   inkscape:export-ydpi="96"
   xmlns:inkscape="http://www.inkscape.org/namespaces/inkscape"
   xmlns:sodipodi="http://sodipodi.sourceforge.net/DTD/sodipodi-0.dtd"
   xmlns="http://www.w3.org/2000/svg"
   xmlns:svg="http://www.w3.org/2000/svg"><sodipodi:namedview
     id="namedview1"
     pagecolor="#ffffff"
     bordercolor="#000000"
     borderopacity="0.25"
     inkscape:showpageshadow="2"
     inkscape:pageopacity="0.0"
     inkscape:pagecheckerboard="0"
     inkscape:deskcolor="#d1d1d1"
     inkscape:document-units="mm"
     inkscape:zoom="1.0154442"
     inkscape:cx="315.62541"
     inkscape:cy="555.42194"
     inkscape:window-width="1854"
     inkscape:window-height="1011"
     inkscape:window-x="0"
     inkscape:window-y="0"
     inkscape:window-maximized="1"
     inkscape:current-layer="layer1"><inkscape:page
       x="0"
       y="1.7472383e-15"
       width="8.4954271"
       height="13.28694"
       id="page2"
       margin="0"
       bleed="0" /></sodipodi:namedview><defs
     id="defs1"><clipPath
       clipPathUnits="userSpaceOnUse"
       id="clipPath2"><path
         style="fill:#7f7d76;fill-opacity:1;stroke-width:0.264583"
         d="m 47.421771,107.48068 -8.337894,20.58417 -1.302795,20.97502 3.38727,23.45033 33.351578,10.1618 -1.693635,-20.58417 1.042236,-15.37299 -2.279893,-4.95063 -2.768441,-2.08447 -4.006099,-1.6285 -2.14961,0.0651 -1.367938,-3.19185 0.716539,-2.08447 2.996428,-4.10381 2.670733,-5.27632 0.325699,-5.66716 -0.716539,-7.88192 -1.693635,-9.6407 z"
         id="path3" /></clipPath></defs><g
     inkscape:label="Layer 1"
     inkscape:groupmode="layer"
     id="layer1"
     transform="translate(-78.922178,-103.11625)"><path
       style="fill:#ffffff"
       d="m 57.857636,176.39669 c -5.397205,-1.33437 -7.829113,-6.70679 -4.566908,-10.08893 2.166198,-2.24585 5.639871,-1.59176 7.053365,1.32813 1.087731,2.24695 0.428008,4.26176 -1.745394,5.33047 -0.611061,0.30047 -1.077909,0.66537 -1.037439,0.81089 0.163588,0.58824 1.386595,0.94972 2.829072,0.8362 1.787047,-0.14065 3.323032,-0.88323 4.426534,-2.14005 1.616846,-1.84149 1.713148,-3.85832 0.441256,-9.24109 l -0.725462,-3.07023 -2.279178,0.15667 c -4.238615,0.29136 -7.953106,-1.16341 -11.172396,-4.37562 -3.0521,-3.0454 -4.468241,-6.37932 -4.468241,-10.51929 0,-2.77024 0.31255,-4.10202 1.635279,-6.96795 1.328754,-2.87897 3.36065,-5.52047 6.492944,-8.44093 l 2.4912,-2.32272 -0.574457,-3.01895 c -0.715073,-3.75793 -0.614213,-9.07497 0.225725,-11.89952 1.141017,-3.83702 4.075896,-8.44964 5.376271,-8.44964 1.797985,0 4.527204,6.38035 5.12663,11.98499 0.54235,5.07097 -1.919831,11.46253 -5.923223,15.37604 -0.974937,0.95305 -1.272898,1.41163 -1.117443,1.71979 0.116587,0.23112 0.427667,1.50587 0.691288,2.83279 l 0.479312,2.41256 2.058791,0.14111 c 3.816126,0.26157 6.830787,2.36804 8.522637,5.95513 0.767247,1.62673 0.838983,2.00459 0.839989,4.42446 0.001,2.49428 -0.05358,2.76034 -0.953535,4.64474 -1.222638,2.56008 -3.721247,5.04558 -5.725196,5.69516 -0.03589,0.0116 0.107443,0.60695 0.318509,1.32292 0.870892,2.95421 1.7617,8.14297 1.582515,9.2178 -0.60909,3.65357 -3.704573,6.1662 -7.857685,6.37814 -1.053576,0.0538 -2.153718,0.0389 -2.44476,-0.0331 z m 6.103108,-17.89477 c 0.105637,-0.10563 -0.176608,-1.71253 -0.627213,-3.57087 -0.450604,-1.85834 -1.196916,-4.98614 -1.658471,-6.95067 -0.461554,-1.96453 -0.87315,-3.61042 -0.914656,-3.65753 -0.149728,-0.16994 -1.592631,0.71053 -2.158741,1.31728 -0.93604,1.00325 -1.657941,2.88535 -1.664258,4.33897 -0.008,1.83123 1.084288,3.54779 2.891849,4.5448 1.442032,0.79539 1.727898,1.39398 0.665718,1.39398 -1.964385,0 -4.722501,-2.40502 -5.685783,-4.95789 -1.445631,-3.83117 0.336684,-8.79552 3.933911,-10.95728 0.531641,-0.31949 0.997331,-0.60085 1.034868,-0.62524 0.10727,-0.0697 -0.914578,-4.89933 -1.069342,-5.05409 -0.07614,-0.0761 -1.07267,0.71077 -2.214507,1.7487 -3.370677,3.06393 -4.754052,4.98984 -5.780457,8.04744 -2.096167,6.24438 0.98066,12.04798 7.540849,14.22377 1.456142,0.48295 5.275728,0.58914 5.706233,0.15863 z m 4.370723,-2.66953 c 1.753051,-2.39154 1.518097,-6.25313 -0.566893,-9.3172 -0.842614,-1.2383 -2.969828,-2.50356 -4.209078,-2.50356 -0.974582,0 -0.999226,-0.48174 0.25039,4.89479 0.405864,1.74625 1.006211,4.36562 1.334103,5.82083 0.327893,1.45521 0.647399,2.73702 0.710015,2.84847 0.202938,0.36122 1.720071,-0.70463 2.481463,-1.74333 z m -7.278039,-31.87071 c 3.763287,-4.41055 5.166638,-9.57937 3.1487,-11.59731 -2.814387,-2.81439 -6.392475,4.23614 -5.666347,11.16537 0.120651,1.15134 0.225785,2.2492 0.233631,2.43969 0.02176,0.52822 0.415619,0.182 2.284016,-2.00775 z m 122.884602,40.52788 c -5.47032,-1.47001 -8.71975,-6.74495 -8.73307,-14.17678 -0.008,-4.37732 0.99055,-7.88601 3.17207,-11.14766 1.98759,-2.97169 4.70131,-4.80834 8.1367,-5.50694 3.94589,-0.8024 8.30827,1.01702 9.91613,4.13574 1.26813,2.45975 0.75676,6.99671 -1.11141,9.86068 -2.82561,4.33176 -6.95473,6.47919 -10.85143,5.6435 -0.77351,-0.16589 -1.47794,-0.23005 -1.56541,-0.14258 -0.33092,0.33092 1.25983,2.66267 2.33576,3.42382 1.02697,0.7265 1.30497,0.79345 3.28157,0.79027 2.45741,-0.004 3.31811,-0.38647 5.028,-2.23453 1.15307,-1.24625 1.77675,-1.33776 2.5363,-0.37215 1.08695,1.38183 0.54402,4.83921 -1.06681,6.79341 -2.40377,2.9162 -6.80515,4.08155 -11.0784,2.93322 z m 1.724,-15.86747 c 0.57624,-0.27177 1.58693,-1.03335 2.24598,-1.6924 3.06379,-3.06379 3.1956,-7.41598 0.22459,-7.41598 -1.64472,0 -3.04609,0.96339 -4.25954,2.92826 -0.69361,1.12313 -1.52895,4.18305 -1.52895,5.60069 v 1.32945 l 1.13511,-0.12794 c 0.62431,-0.0704 1.60657,-0.3503 2.18281,-0.62208 z m -20.007,15.7669 c -0.22946,-0.13422 -0.63575,-0.72869 -0.90286,-1.32105 -0.46556,-1.03242 -0.47019,-1.51213 -0.11196,-11.58801 0.20553,-5.78106 0.37369,-14.32459 0.37369,-18.98562 v -8.47461 l -0.87654,-1.90136 c -0.86463,-1.87552 -0.87052,-1.91406 -0.43317,-2.83571 0.7861,-1.65658 4.8049,-4.10265 6.74925,-4.10799 0.51789,-10e-4 1.16403,0.16005 1.43586,0.35882 0.48253,0.35283 0.48216,0.56774 -0.0156,9.06197 -0.34593,5.90364 -0.50983,12.0177 -0.50983,19.01932 0,11.98162 0.10122,12.81835 1.74336,14.412 1.74823,1.6966 1.41584,2.87666 -1.29894,4.61153 -2.85826,1.82656 -4.98782,2.43245 -6.15329,1.75071 z m 39.17695,-0.51624 c -2.62682,-0.79904 -4.11353,-2.55569 -4.89938,-5.78895 -0.52621,-2.16504 -0.49263,-4.28517 0.27526,-17.37946 0.50638,-8.63498 0.43549,-17.02173 -0.15432,-18.25625 -0.20857,-0.43657 -0.76617,-1.38635 -1.23912,-2.11064 -1.27479,-1.95228 -1.17241,-2.60497 0.68602,-4.37338 1.54687,-1.47195 4.69653,-3.26057 6.28196,-3.56738 0.5848,-0.11318 0.99339,-0.0147 1.4402,0.34711 0.58409,0.47297 0.62106,0.66856 0.58091,3.07356 -0.0433,2.59426 -0.43426,12.04969 -0.75004,18.1401 l -0.17148,3.30729 1.31781,-1.36364 c 0.72479,-0.75 1.79447,-1.60681 2.37705,-1.90402 4.19771,-2.14151 8.93192,0.28042 10.80042,5.52529 0.70242,1.97169 0.94173,3.68724 0.94385,6.76598 0.002,3.61842 -0.27499,4.8425 -1.82302,8.04202 -1.03597,2.14118 -1.57099,2.86714 -3.61162,4.90044 -2.50906,2.50005 -4.3874,3.69741 -7.00758,4.46703 -1.49553,0.43928 -3.90346,0.52273 -5.04692,0.1749 z m 6.5216,-8.38732 c 1.0984,-0.52123 2.41684,-2.09229 3.41175,-4.06547 0.60505,-1.2 0.75563,-1.90112 0.8586,-3.99779 0.14568,-2.96657 -0.30645,-4.75203 -1.49066,-5.88657 -1.63636,-1.56773 -3.56228,-1.39635 -5.28268,0.47007 -1.02357,1.11044 -1.49689,1.31882 -1.19223,0.52488 0.0788,-0.20522 -0.0181,-0.37282 -0.21667,-0.37506 -0.29753,-0.003 -0.29858,-0.0424 -0.006,-0.22776 0.28948,-0.1835 0.28443,-0.24999 -0.0281,-0.36992 -0.31721,-0.12172 -0.41067,0.54768 -0.55822,3.99808 -0.17537,4.1012 0.0844,7.75453 0.62299,8.76086 0.42025,0.78525 1.60146,1.60113 2.31809,1.60113 0.35856,0 1.06203,-0.1946 1.56325,-0.43245 z m -57.40632,7.27955 c -0.22434,-0.34617 -0.49153,-1.38147 -0.59377,-2.30068 l -0.18589,-1.67129 -1.35289,1.37582 c -0.79619,0.80969 -2.04182,1.70216 -3.02713,2.16888 -1.46187,0.69247 -1.88289,0.77631 -3.31925,0.66102 -1.96546,-0.15777 -3.02617,-0.66372 -4.49386,-2.14352 -2.3245,-2.34369 -3.42622,-5.53547 -3.43945,-9.96442 -0.0227,-7.5899 3.60247,-14.27616 9.2589,-17.07722 1.76187,-0.87248 2.3437,-1.03147 3.80019,-1.03847 0.94589,-0.005 1.92815,0.0938 2.18282,0.21848 0.43201,0.21156 0.46259,-0.0808 0.4567,-4.36562 -0.007,-5.34463 -0.15427,-6.16929 -1.42887,-8.01997 -1.27368,-1.84932 -1.2317,-2.5184 0.25103,-4.00112 2.37087,-2.37087 6.76702,-3.80253 7.85873,-2.55929 0.73297,0.8347 0.76931,1.57375 0.35746,7.26848 -1.02703,14.20072 -1.03892,30.86523 -0.0244,34.23614 0.20479,0.6805 0.75901,1.63619 1.23158,2.12376 0.74777,0.77151 0.8264,0.97985 0.60614,1.60617 -0.5046,1.43481 -4.21007,3.7444 -6.36951,3.97006 -1.2221,0.12771 -1.40216,0.0781 -1.76851,-0.48721 z m -4.2043,-8.68803 c 1.18282,-0.85682 2.30397,-2.566 2.82935,-4.31328 0.18552,-0.61701 0.42469,-3.0453 0.53148,-5.39621 l 0.19415,-4.27438 -0.66971,-0.43881 c -0.56162,-0.36799 -0.83337,-0.38978 -1.68377,-0.13499 -2.39267,0.71686 -5.21729,3.7108 -6.05065,6.41336 -1.876,6.08384 1.00767,10.92707 4.84915,8.14431 z m -70.505843,8.20257 c -1.316238,-0.80256 -1.58217,-1.45303 -2.312836,-5.65718 -1.283456,-7.38483 -3.102631,-14.09438 -5.714754,-21.07738 -2.068925,-5.53086 -2.414174,-6.35 -2.676399,-6.35 -0.123447,0 -0.224449,2.14313 -0.224449,4.7625 0,5.23451 0.01474,5.19418 -1.594004,4.36226 -0.425686,-0.22013 -1.485467,-0.4746 -2.355068,-0.56549 -1.739433,-0.18181 -1.611675,-0.0122 -2.013176,-2.67246 -0.164733,-1.09148 -0.12304,-1.17561 1.413661,-2.85265 1.938801,-2.11586 3.284442,-4.76476 4.179663,-8.22769 0.597712,-2.3121 0.661301,-2.99105 0.554347,-5.91897 -0.06645,-1.819 -0.199481,-3.49443 -0.295632,-3.72317 -0.212611,-0.5058 0.726222,-0.98882 2.35619,-1.21223 0.968662,-0.13277 1.178927,-0.0698 1.553805,0.46543 0.238451,0.34044 0.433547,0.84825 0.433547,1.12849 0,0.68821 1.410808,4.77407 4.442668,12.86648 1.390262,3.71078 3.021925,8.0851 3.625919,9.72071 0.603993,1.6356 1.181043,3.0567 1.282333,3.15799 0.101289,0.10129 0.103313,-5.88567 0.0045,-13.30435 -0.09882,-7.41868 -0.101119,-13.80144 -0.0051,-14.18394 0.250643,-0.99864 1.414155,-2.28176 2.468557,-2.72232 1.269476,-0.53042 4.598448,-1.18891 6.010468,-1.18891 1.18317,0 2.01443,0.48201 2.01443,1.1681 0,0.18511 -0.23152,1.00947 -0.51448,1.83191 -1.09881,3.19373 -1.85224,7.5863 -2.66221,15.52081 -0.79701,7.80755 -0.80117,23.61556 -0.007,27.75122 0.15046,0.78384 0.27357,2.08418 0.27357,2.88962 0,1.37828 -0.0663,1.52795 -1.12748,2.54358 -1.442996,1.3811 -3.365813,2.0055 -6.171816,2.00418 -1.608046,-7.6e-4 -2.289449,-0.12052 -2.938932,-0.51654 z m 20.953853,-0.11804 c -3.820483,-1.21144 -6.624413,-4.02288 -8.074013,-8.09569 -0.92029,-2.58562 -1.06198,-8.06735 -0.28768,-11.12929 1.96859,-7.78475 6.73869,-11.84453 13.608053,-11.58168 1.91275,0.0732 2.69002,0.22711 3.67084,0.72695 2.57094,1.31017 3.90556,3.38774 4.11211,6.40118 0.32088,4.68148 -2.52797,9.50042 -6.93444,11.72989 -1.72159,0.87104 -4.78743,1.21949 -6.24847,0.71017 -0.472043,-0.16455 -0.914503,-0.24293 -0.983253,-0.17418 -0.25014,0.25014 0.53149,1.68 1.353003,2.47507 1.14556,1.10869 2.52503,1.63564 4.28177,1.63564 1.88414,0 3.08198,-0.51058 4.65943,-1.98609 1.05052,-0.98264 1.36757,-1.14587 1.87436,-0.96496 0.77866,0.27794 1.53507,1.74778 1.5356,2.98394 5.4e-4,1.25734 -0.6333,3.01463 -1.49468,4.14396 -2.05417,2.69315 -7.54633,4.24324 -11.07263,3.12509 z m 1.67923,-15.88034 c 2.55267,-1.29353 4.2739,-3.90819 4.2739,-6.4923 0,-1.93555 -0.54204,-2.65638 -1.99752,-2.65638 -2.64288,0 -5.064713,3.1943 -5.683953,7.49694 -0.1222,0.84909 -0.15753,1.7123 -0.0785,1.91823 0.2271,0.5918 2.070393,0.4509 3.486083,-0.26649 z m 22.18716,15.95207 c -0.91681,-0.1279 -2.27907,-0.60568 -3.38712,-1.18794 -4.21402,-2.2144 -6.37109,-6.62095 -6.38098,-13.03537 -0.006,-3.71151 0.47614,-5.91246 1.96264,-8.96452 2.45703,-5.04475 6.63631,-7.8491 11.60559,-7.7875 3.50709,0.0435 6.38206,1.58124 7.73393,4.13674 0.47661,0.90095 0.57051,1.52917 0.57615,3.85451 0.006,2.62612 -0.0425,2.87946 -0.89236,4.63021 -1.1362,2.34046 -3.97051,5.21704 -6.24536,6.3385 -1.32396,0.65268 -1.91546,0.78339 -3.57116,0.78911 -1.09141,0.004 -2.38876,-0.0987 -2.883,-0.22776 l -0.89863,-0.23462 0.73626,1.35275 c 1.07062,1.96709 2.39065,2.79059 4.68056,2.91998 2.42872,0.13724 3.77147,-0.38745 5.33484,-2.08463 1.10894,-1.20386 1.26264,-1.28743 1.8639,-1.01347 0.92886,0.42321 1.30005,1.53202 1.17426,3.50765 -0.29979,4.70799 -5.40638,7.84385 -11.40952,7.00636 z m 0.56571,-15.82424 c 2.81513,-1.4515 5.00059,-4.70663 4.736,-7.05403 -0.18538,-1.64473 -0.9035,-2.34892 -2.33708,-2.29175 -1.77497,0.0708 -3.19743,1.29764 -4.36597,3.76563 -0.74543,1.57437 -1.57028,5.34777 -1.31463,6.01398 0.19896,0.51848 1.86079,0.29879 3.28168,-0.43383 z m 107.53316,15.04202 c -3.29998,-1.04557 -6.20516,-3.99262 -7.58784,-7.69718 -1.0993,-2.94534 -1.36257,-5.73308 -0.83449,-8.8365 1.042,-6.12368 3.65411,-11.13833 6.93329,-13.31037 2.83913,-1.88057 6.28644,-2.42815 9.46647,-1.50369 3.77356,1.097 6.7918,6.45671 7.6088,13.5115 0.26033,2.24793 0.24022,3.0357 -0.13374,5.23821 -1.56668,9.2274 -8.43014,14.82301 -15.45249,12.59803 z m 4.34409,-7.93059 c 1.05952,-0.39945 2.40993,-1.76874 3.12637,-3.17007 1.69896,-3.32308 1.91272,-7.1058 0.558,-9.87474 -0.98144,-2.006 -1.80122,-2.54938 -3.84619,-2.54938 -1.53588,0 -1.68137,0.0575 -2.84331,1.12448 -3.06537,2.81476 -4.11509,8.48283 -2.25176,12.15862 1.14911,2.26684 3.0997,3.12438 5.25689,2.31109 z m 15.95303,7.11106 c -2.91026,-2.21973 -3.28565,-4.69352 -2.52203,-16.61983 0.50574,-7.89877 0.78498,-16.19571 0.57344,-17.03854 -0.20566,-0.81943 -1.56095,-1.58717 -2.42084,-1.37135 -1.49332,0.3748 -2.30418,-2.70615 -1.19219,-4.52987 0.56921,-0.93353 1.76401,-1.66649 2.71655,-1.66649 0.5587,0 0.60611,-0.0978 0.51427,-1.06091 -0.0556,-0.5835 -0.0323,-1.33544 0.0519,-1.67096 0.28039,-1.11718 2.70287,-3.33662 4.56189,-4.17954 3.1992,-1.45059 3.65199,-0.90277 3.41635,4.13329 -0.0885,1.89176 -0.18549,3.73723 -0.21551,4.10103 l -0.0546,0.66146 2.76821,0.076 c 3.2151,0.0883 3.71408,0.34708 3.71408,1.92624 0,1.38937 -1.48669,4.16921 -2.64991,4.95484 -0.76431,0.51621 -1.19212,0.60803 -2.50188,0.53696 l -1.57992,-0.0857 -0.1777,1.05833 c -0.0977,0.58208 -0.24171,2.84427 -0.31995,5.02708 -0.0783,2.18282 -0.158,4.02828 -0.17722,4.10104 -0.0192,0.0728 -0.0318,1.82894 -0.0279,3.90261 0.005,2.42743 -0.0905,3.77031 -0.26688,3.77031 -0.15066,0 -0.0868,0.1871 0.14185,0.41578 0.22868,0.22867 0.43066,0.70492 0.44885,1.05833 0.0182,0.35341 0.0579,0.73185 0.0883,0.841 0.0304,0.10914 0.2092,0.76788 0.3974,1.46387 0.40478,1.49695 0.99198,1.89488 2.49746,1.69248 1.31459,-0.17673 2.96121,0.14743 2.87231,0.56547 -0.0355,0.16707 0.23557,0.3791 0.60243,0.47118 0.53778,0.13497 0.60707,0.23964 0.35762,0.54021 -0.17017,0.20504 -0.2329,0.4493 -0.1394,0.5428 0.0935,0.0935 0.17181,0.001 0.17404,-0.20483 0.003,-0.3129 0.0448,-0.31041 0.25062,0.0151 0.15846,0.25058 0.1452,0.45254 -0.0371,0.56522 -0.15602,0.0964 -0.28369,0.48653 -0.28369,0.86688 0,0.38035 -0.1112,0.69155 -0.24712,0.69155 -0.13592,0 -0.17947,0.10947 -0.0968,0.24325 0.0827,0.13379 -0.0293,0.42294 -0.24897,0.64256 -0.21961,0.21962 -0.3993,0.5176 -0.3993,0.66218 0,0.40617 -1.95365,1.98326 -3.50161,2.82668 -1.14665,0.62476 -1.79236,0.77828 -3.649,0.86757 -2.22916,0.1072 -2.2698,0.0978 -3.43807,-0.79324 z M 70.270616,140.27116 c -0.197559,-0.31966 0.850649,-1.27076 1.4115,-1.28073 0.563419,-0.01 0.364321,0.705 -0.32142,1.15431 -0.775938,0.50841 -0.848772,0.51686 -1.09008,0.12642 z m 196.872454,-3.04322 c -2.05966,-1.41498 -7.60075,-4.34707 -8.7974,-4.65517 -0.58841,-0.15149 -0.81184,-0.83151 -0.36412,-1.10821 0.34865,-0.21548 7.67099,3.57683 9.95509,5.15582 1.81757,1.25649 2.26119,1.82062 1.57114,1.99797 -0.13642,0.0351 -1.20054,-0.59062 -2.36471,-1.39041 z m -91.88914,-0.10407 c -1.78955,-0.10613 -3.32231,-0.26154 -3.40613,-0.34536 -0.0838,-0.0838 -0.0917,-0.31064 -0.0174,-0.50405 0.10517,-0.27406 0.59403,-0.30992 2.2155,-0.16253 1.1443,0.10402 2.88423,0.1976 3.86649,0.20796 0.98227,0.0103 1.78594,0.095 1.78594,0.18809 0,0.19912 -0.86572,0.88669 -1.05833,0.84055 -0.0728,-0.0174 -1.59647,-0.11853 -3.38602,-0.22466 z m -13.34888,-1.77391 c -1.44633,-0.33031 -1.78594,-0.50488 -1.78594,-0.91801 0,-0.38624 0.12594,-0.47018 0.51848,-0.34559 0.28516,0.0905 1.26743,0.31726 2.18281,0.50389 1.16329,0.23719 1.69009,0.4718 1.74988,0.77932 0.10369,0.53329 -0.2558,0.53064 -2.66523,-0.0196 z m 33.22149,-0.20562 c -0.26316,-0.19242 -0.41913,-0.39821 -0.3466,-0.45729 0.15955,-0.12996 4.67593,-1.25876 5.03638,-1.25876 0.29653,0 0.35255,0.7918 0.0564,0.79772 -0.10914,0.002 -1.11404,0.28842 -2.2331,0.63609 -1.72378,0.53553 -2.10776,0.57865 -2.51312,0.28224 z M 80.126734,134.57482 c -0.311134,-0.31113 -0.191453,-0.52556 0.458672,-0.82177 0.770919,-0.35126 1.024628,-0.16027 0.669238,0.50378 -0.265716,0.4965 -0.799044,0.64686 -1.12791,0.31799 z m 94.946706,-1.66975 c -0.3527,-0.38973 -0.43753,-0.79149 -0.33249,-1.57461 l 0.14102,-1.05138 -1.36216,-0.079 c -0.99929,-0.058 -1.36216,-0.18476 -1.36216,-0.47591 0,-0.3175 0.39688,-0.39688 1.98438,-0.39688 1.09141,0 2.34156,-0.15919 2.77812,-0.35376 0.43713,-0.19482 1.27883,-0.30085 1.87341,-0.23599 l 1.07965,0.11777 -0.0848,-2.67442 -0.0848,-2.67443 -3.57455,-0.0736 c -3.26455,-0.0672 -3.57454,-0.11573 -3.57454,-0.55923 0,-0.45392 0.23744,-0.47704 3.63802,-0.35427 l 3.63802,0.13134 -0.0822,-3.07784 -0.0822,-3.07784 h -3.00505 c -3.19145,0 -3.84208,-0.11305 -3.84208,-0.6676 0,-0.27593 0.73305,-0.31568 3.6027,-0.19536 3.5233,0.14773 3.59896,0.13931 3.4336,-0.38168 -0.21391,-0.67398 0.18544,-1.00226 1.69495,-1.39331 0.65485,-0.16964 3.23075,-0.95518 5.72423,-1.74566 2.49349,-0.79047 4.60184,-1.43722 4.68523,-1.43722 0.0834,0 0.18639,0.87762 0.22889,1.95027 l 0.0773,1.95026 3.70416,-0.87158 c 2.0373,-0.47937 5.8473,-1.60078 8.46667,-2.49204 4.30074,-1.46334 11.1191,-3.3678 13.69219,-3.82441 0.92553,-0.16424 0.99218,-0.23871 0.99218,-1.10853 0,-0.81565 0.0746,-0.92186 0.59532,-0.84791 0.4859,0.069 0.57884,0.22463 0.5057,0.84673 -0.0841,0.71568 -0.0443,0.7508 0.6538,0.5756 1.15653,-0.29028 6.28172,-0.88399 9.4025,-1.08921 l 2.82295,-0.18564 0.0875,-4.60555 c 0.071,-3.738534 0.16218,-4.652644 0.48435,-4.855804 0.67524,-0.42581 0.9196,-0.13523 1.09824,1.30595 0.2197,1.7725 1.1397,3.536174 3.09226,5.928014 0.85303,1.04493 1.62462,2.10824 1.71464,2.3629 0.11074,0.3133 0.4444,0.46337 1.03187,0.46409 2.57295,0.003 9.64848,1.56276 14.38579,3.17096 5.25365,1.78348 14.92511,6.85891 14.92511,7.83246 0,0.58489 -0.34378,0.46158 -2.58018,-0.92547 -6.99917,-4.34103 -15.45659,-7.50166 -23.34898,-8.72578 -3.62648,-0.56247 -3.76379,-0.5673 -3.59469,-0.12663 0.51378,1.33888 0.419,3.33326 -0.23328,4.90883 -0.14714,0.3554 -0.004,0.47432 0.697,0.58094 2.78636,0.42352 6.13592,1.03727 7.69503,1.40999 1.40146,0.33504 1.78594,0.53154 1.78594,0.9128 0,0.58448 -0.0457,0.58664 -1.71269,0.081 -1.33883,-0.40611 -6.96577,-1.44723 -7.82182,-1.44723 -0.41501,0 -0.43682,0.10854 -0.18601,0.92573 0.27035,0.8809 0.0909,2.53583 -0.46268,4.26619 -0.2006,0.62704 -0.34174,0.58427 3.89934,1.18172 1.53474,0.2162 2.31511,0.44029 2.31511,0.66479 0,0.59011 -0.40917,0.63194 -2.41929,0.24734 -2.64562,-0.50619 -4.7957,-0.58977 -4.92843,-0.19158 -0.0576,0.17277 -0.28612,0.31413 -0.50785,0.31413 -0.24964,0 -0.34514,-0.15111 -0.25084,-0.39687 0.10706,-0.27897 -0.0221,-0.39756 -0.43471,-0.39918 -0.32285,-0.001 -1.20887,-0.077 -1.96893,-0.1683 -1.34128,-0.16112 -1.39043,-0.14354 -1.67127,0.59761 -0.57512,1.51779 -2.28377,2.77373 -4.28406,3.14899 -1.95974,0.36765 -3.90754,-0.92031 -3.90754,-2.58383 v -0.78856 l -1.52135,0.17413 c -0.83675,0.0958 -2.14643,0.29653 -2.91042,0.44612 l -1.38906,0.27199 v 2.0705 c 0,2.04716 -0.0108,2.07996 -0.95544,2.90938 -1.20296,1.05622 -1.93091,1.3326 -3.50981,1.3326 -1.58314,0 -2.41392,-0.6795 -2.41392,-1.97438 0,-2.03619 3.16935,-4.07389 5.15949,-3.31724 0.56706,0.2156 0.66134,0.17694 0.66134,-0.27117 0,-0.28744 -0.0517,-0.52262 -0.11499,-0.52262 -0.47329,0 -4.5958,0.97233 -7.49382,1.76748 -1.92927,0.52935 -3.58906,0.88117 -3.68842,0.78181 -0.56028,-0.56028 2.45889,-1.6421 7.85765,-2.81553 1.38245,-0.30048 2.7219,-0.60965 2.97656,-0.68704 0.40416,-0.12283 0.46302,-0.50845 0.46302,-3.0333 0,-1.71763 -0.10559,-2.89258 -0.25995,-2.89258 -0.23099,0 -8.47917,2.09127 -9.99265,2.53357 -0.89598,0.26184 -0.7753,-0.62572 0.13229,-0.97295 0.96299,-0.36842 7.56675,-2.01473 8.99584,-2.24266 l 1.12447,-0.17934 v -2.98076 -2.98076 l -0.99218,0.22884 c -4.94197,1.13983 -7.63545,1.89216 -12.76615,3.56578 -5.41306,1.76572 -9.58898,2.92703 -12.23698,3.40306 l -0.99218,0.17837 v 2.89841 c 0,3.35644 -0.22435,3.18016 3.01006,2.3652 2.45965,-0.61975 3.07535,-0.6523 3.07535,-0.16261 0,0.39828 -1.25259,0.80017 -4.10104,1.31579 l -1.85208,0.33527 -0.13229,2.54511 c -0.11336,2.18081 -0.21874,2.63694 -0.73625,3.18666 l -0.60395,0.64155 2.91781,-0.60242 c 1.6048,-0.33134 3.56178,-0.78964 4.34884,-1.01844 1.76831,-0.51406 2.01105,-0.51726 2.01105,-0.0265 0,0.37328 -0.50633,0.55774 -4.36563,1.59049 -2.87316,0.76886 -10.07728,1.72419 -13.002,1.72419 h -1.90338 l -0.48481,0.98986 c -0.92018,1.87878 -4.1259,2.89512 -5.24194,1.66192 z m 11.57037,-3.88341 c 0.14311,-0.0884 0.12517,-0.27016 -0.0433,-0.43865 -0.45609,-0.45608 -0.33529,-1.63736 0.24256,-2.37197 0.73321,-0.93213 2.75482,-1.87474 3.57776,-1.66819 0.62106,0.15587 0.65454,0.10551 0.65454,-0.98457 v -1.14885 l -2.05052,0.33894 c -1.12778,0.18642 -3.4495,0.42178 -5.15937,0.52301 l -3.10886,0.18407 v 3.04101 3.04102 l 2.82143,-0.18241 c 1.55179,-0.10032 2.93138,-0.25036 3.06577,-0.33341 z m -0.46162,-6.84104 c 1.89088,-0.21986 3.82492,-0.47123 4.29786,-0.55861 l 0.8599,-0.15886 v -2.38266 c 0,-2.13914 -0.0473,-2.37022 -0.46303,-2.26105 -0.25466,0.0669 -2.63519,0.76537 -5.29006,1.5522 l -4.82705,1.43061 -0.002,1.38907 -0.002,1.38906 h 0.99381 c 0.5466,0 2.54089,-0.17989 4.43177,-0.39976 z m 37.40168,-2.15577 c 2.7007,-0.38845 3.18295,-0.53951 4.19945,-1.31542 1.55284,-1.18531 2.99002,-1.59787 4.32502,-1.24153 l 1.03577,0.27646 v -1.94761 c 0,-1.07118 -0.0298,-2.03691 -0.0661,-2.14605 -0.14537,-0.43611 -7.5964,0.0731 -11.37709,0.77757 l -1.52135,0.28347 v 2.87598 c 0,1.58179 0.0795,2.87599 0.17663,2.87599 0.0971,0 1.54962,-0.19748 3.22771,-0.43886 z m 15.33685,-1.02496 c 0.58325,-1.28009 0.64902,-2.66984 0.19153,-4.04722 l -0.44134,-1.32875 -2.10256,-0.0858 -2.10257,-0.0858 6.3e-4,2.96448 6.2e-4,2.96446 1.78594,0.0926 c 0.98226,0.0509 1.91565,0.11588 2.07419,0.14438 0.15855,0.0285 0.42565,-0.24971 0.59356,-0.61825 z m -54.79724,-1.59138 c 1.70297,-0.5162 3.16015,-1.01141 3.23816,-1.10048 0.078,-0.0891 -0.0762,-0.0834 -0.34281,0.0125 -0.26657,0.096 -1.78461,0.17445 -3.37344,0.17445 h -2.88878 v 0.92603 c 0,0.50933 0.0609,0.92604 0.13527,0.92604 0.0744,0 1.52862,-0.42234 3.2316,-0.93853 z m 4.17376,-2.26305 c 1.45521,-0.17546 2.73123,-0.39213 2.8356,-0.4815 0.10438,-0.0894 0.12362,-0.41545 0.0428,-0.72463 l -0.147,-0.56214 -2.15944,0.67142 c -4.20093,1.30617 -5.14794,1.65609 -4.14381,1.53112 0.50933,-0.0634 2.11667,-0.25881 3.57188,-0.43427 z m 35.46078,-1.92807 c 1.74261,-0.22523 4.6213,-0.49043 6.39708,-0.58934 l 3.22869,-0.17982 -0.0384,-2.87142 -0.0384,-2.87142 -2.39653,-0.002 c -1.3181,-0.001 -4.27177,0.25392 -6.56372,0.56677 l -4.16719,0.56883 v 3.02072 c 0,1.66139 0.0923,2.96369 0.20506,2.89399 0.11278,-0.0697 1.63082,-0.31102 3.37343,-0.53625 z m 14.14859,-0.64632 c 0,-0.23014 -1.82165,-1.59585 -2.84427,-2.13238 -0.57523,-0.3018 -0.59531,-0.27237 -0.59531,0.87238 v 1.18473 l 1.12448,0.10128 c 2.15544,0.19413 2.3151,0.19234 2.3151,-0.026 z m 1.58169,-2.50786 c -0.003,-0.60987 -0.2355,-1.61488 -0.51623,-2.23334 l -0.51042,-1.12448 h -1.49103 -1.49104 l 0.7505,0.99834 c 2.41152,3.20794 2.84869,3.72504 3.04607,3.60305 0.11988,-0.0741 0.21535,-0.63369 0.21215,-1.24357 z m -3.02965,-5.35407 c -1.61066,-1.44305 -2.01026,-1.50848 -1.73408,-0.28393 0.306,1.35675 0.46623,1.48738 1.80859,1.47456 l 1.24116,-0.0119 z m -84.31538,27.79887 c -0.43266,-0.43267 -10.30767,-2.99388 -15.17521,-3.93589 -14.61393,-2.82823 -30.52908,-2.21303 -44.551193,1.72212 -1.51086,0.424 -2.80549,0.71245 -2.87696,0.64098 -0.5823,-0.5823 2.80784,-1.80095 7.87294,-2.83007 0.80036,-0.16262 1.49992,-0.33623 1.55458,-0.3858 0.0547,-0.0496 -0.27277,-0.40327 -0.72761,-0.78599 -0.67096,-0.56458 -0.82697,-0.89436 -0.82697,-1.74806 0,-1.36337 0.31693,-1.9187 1.64348,-2.87964 l 1.086803,-0.78728 -0.902123,0.17348 c -0.49617,0.0954 -2.50946,0.58501 -4.47399,1.08801 -5.14594,1.31757 -4.82964,1.269 -4.72267,0.72509 0.0988,-0.50244 0.98149,-0.82948 4.59037,-1.70079 1.97291,-0.47632 6.654693,-1.38874 8.929693,-1.74029 l 0.99219,-0.15331 v -2.9946 -2.99459 l -1.38906,0.22954 c -3.521903,0.58199 -10.245263,2.05325 -11.389513,2.49234 -0.32995,0.12661 -0.4506,0.0341 -0.4506,-0.34565 0,-0.44816 0.52984,-0.64901 3.90261,-1.47943 2.14643,-0.52847 5.122993,-1.15954 6.614583,-1.40238 l 2.71198,-0.44151 v -2.86987 c 0,-2.55748 -0.0504,-2.86967 -0.46302,-2.86811 -0.78458,0.003 -6.151013,0.97565 -8.723713,1.58119 -2.27901,0.53641 -2.9841,0.54259 -2.9841,0.0261 0,-0.30468 6.51542,-1.7803 11.169503,-2.5297 l 0.98304,-0.15829 0.0753,-2.7017 c 0.0702,-2.51754 0.11329,-2.70714 0.63264,-2.78129 0.49966,-0.0713 0.57193,0.0812 0.69825,1.47437 0.0775,0.85466 0.40063,2.06302 0.71806,2.68525 0.48715,0.9549 0.66707,1.1028 1.15383,0.94848 0.31717,-0.10055 4.11308,-0.24606 8.43535,-0.32334 l 7.85866,-0.14052 0.0788,-1.34825 0.0788,-1.34825 4.8948,-0.59677 c 2.69213,-0.32822 6.57713,-0.83787 8.63332,-1.13253 2.0562,-0.29466 3.8719,-0.53574 4.0349,-0.53574 0.20547,0 0.29636,1.20661 0.29636,3.93433 v 3.93434 l 1.65364,0.31871 c 1.75472,0.33818 3.91736,0.94276 9.06199,2.53335 1.74625,0.5399 3.56195,1.09264 4.0349,1.22831 0.47294,0.13568 0.85989,0.36015 0.85989,0.49883 0,0.54055 -1.76288,0.18672 -7.2331,-1.45177 -3.12877,-0.93715 -6.29361,-1.81387 -7.03299,-1.94825 l -1.34433,-0.24434 v 2.85552 2.85552 l 1.38906,0.38711 c 0.76399,0.21291 2.67248,0.72481 4.24109,1.13755 2.17421,0.57207 2.83207,0.8461 2.768,1.15301 -0.10643,0.50981 -0.1496,0.50367 -4.4294,-0.63039 -1.96453,-0.52055 -3.65375,-0.94758 -3.75381,-0.94893 -0.10006,-0.001 -0.21912,1.3109 -0.26458,2.91613 l -0.0827,2.91861 1.05833,0.26483 c 7.96837,1.99397 9.6573,2.55408 9.6573,3.20269 0,0.40931 -0.11301,0.4966 -0.46302,0.35767 -1.09234,-0.4336 -4.05339,-1.29093 -7.36203,-2.13156 l -3.55505,-0.90324 -1.17858,0.83074 c -2.16836,1.52841 -5.14204,1.26259 -6.0758,-0.54312 -0.21295,-0.4118 -0.32638,-0.98124 -0.25207,-1.26543 0.12237,-0.46794 -0.0849,-0.54588 -2.19698,-0.82602 -1.28266,-0.17014 -3.25484,-0.38657 -4.38262,-0.48097 l -2.05052,-0.17164 -9.9e-4,1.55244 c -0.001,1.80059 -0.59664,2.99984 -1.87589,3.77779 l -0.82339,0.50073 2.34232,0.17187 c 6.82532,0.50079 12.39004,1.35209 18.21732,2.78691 5.03787,1.24045 9.45459,2.60618 9.70599,3.00128 0.29524,0.464 -0.23402,0.9622 -0.6162,0.58003 z m -42.95646,-6.20745 c 1.60073,-0.13947 4.18169,-0.28942 5.73546,-0.33323 2.55414,-0.072 2.78883,-0.11972 2.4474,-0.49737 -0.88383,-0.97759 -0.21599,-2.83305 1.4665,-4.07435 1.1394,-0.84063 3.36262,-1.31626 4.3672,-0.93432 0.79364,0.30174 1.09286,0.21151 0.81099,-0.24456 -0.19222,-0.31102 -10.29748,-0.40768 -11.77284,-0.1126 -0.70364,0.14072 -0.96214,0.41084 -1.51926,1.5875 -0.36924,0.77985 -0.76945,1.41791 -0.88935,1.41791 -0.45881,0 -0.49592,-0.51332 -0.11513,-1.59259 0.21729,-0.61587 0.39524,-1.13457 0.39544,-1.15265 8.7e-4,-0.0798 -3.10198,0.12954 -3.63839,0.24545 -0.54364,0.11746 -0.59532,0.27897 -0.59532,1.86077 0,1.86897 -0.21292,2.47155 -1.28909,3.64813 l -0.69528,0.76014 1.19062,-0.16233 c 0.65485,-0.0893 2.50032,-0.27644 4.10105,-0.4159 z m -4.63021,-5.0431 c 0,-0.14552 -0.26789,-0.25621 -0.59531,-0.24599 -0.56804,0.0177 -0.57107,0.029 -0.0662,0.24599 0.29104,0.12507 0.55893,0.23576 0.59531,0.24599 0.0364,0.0102 0.0662,-0.10047 0.0662,-0.24599 z m 30.34553,-1.29064 c 0.72944,-1.16803 3.72229,-2.01839 5.43937,-1.5455 l 0.72761,0.20039 v -1.45005 -1.45004 l -0.99219,-0.2597 c -3.08366,-0.80712 -11.90397,-2.14195 -14.15359,-2.14195 h -0.72922 v 2.8894 2.88938 l 0.7276,0.14157 c 0.40018,0.0779 1.74821,0.21871 2.99562,0.31298 1.24742,0.0943 2.97382,0.32548 3.83646,0.5138 0.86264,0.18831 1.6291,0.35459 1.70323,0.3695 0.0741,0.0149 0.27444,-0.19649 0.44511,-0.46978 z m -24.45854,-0.7431 c 0.10914,-0.0628 0.19843,-0.94531 0.19843,-1.96116 0,-1.34866 -0.14851,-2.13812 -0.55044,-2.92596 -0.52539,-1.02985 -0.59463,-1.07165 -1.52137,-0.91842 -0.534,0.0883 -1.35786,0.16186 -1.8308,0.16346 l -0.8599,0.003 v 3.0609 3.06088 l 2.18282,-0.18423 c 1.20055,-0.10132 2.27211,-0.23559 2.38126,-0.29838 z m 13.47773,-3.17243 -0.0822,-2.9959 h -6.10025 -6.10024 l 0.17417,0.7276 c 0.36963,1.54412 0.45031,3.15276 0.21046,4.19607 l -0.24995,1.08722 6.11507,-0.01 6.11506,-0.01 z m 17.14779,-4.45111 c 0,-2.72318 -0.0486,-3.04223 -0.46303,-3.03811 -0.25466,0.003 -3.20145,0.36478 -6.54843,0.805 -3.34698,0.44022 -6.7105,0.87152 -7.47448,0.95845 l -1.38906,0.15807 v 0.97187 0.97188 l 1.25677,0.0579 c 2.32837,0.10735 7.85013,0.86263 10.78177,1.47476 1.60073,0.33424 3.11877,0.62461 3.37343,0.64527 0.41631,0.0338 0.46303,-0.26939 0.46303,-3.00513 z m -33.22885,1.02055 1.24086,-0.17008 -0.73104,-0.76303 c -0.40206,-0.41967 -1.12242,-0.99396 -1.6008,-1.27621 l -0.86977,-0.51318 v 1.44629 c 0,1.59182 -0.0595,1.55311 1.96075,1.27621 z m 16.03093,-3.44649 v -2.99803 h -5.43439 c -4.71372,0 -10.35711,0.35747 -10.67588,0.67625 -0.0568,0.0568 0.62772,1.18519 1.5212,2.50752 0.89347,1.32233 1.62449,2.50887 1.62449,2.63676 0,0.12809 2.91134,0.21972 6.48229,0.20402 l 6.48229,-0.0285 z m 6.15556,-1.16337 c 2.14862,-0.32557 3.86912,-0.62941 3.82332,-0.67521 -0.12492,-0.12492 -6.80558,-0.8897 -7.79607,-0.89246 -0.84498,-0.002 -0.85989,0.0186 -0.85989,1.20606 0,1.02307 0.071,1.1889 0.46302,1.081 0.25466,-0.0701 2.22099,-0.39383 4.36962,-0.71939 z m 10.44704,-1.48267 c 0.50616,-0.12309 0.59532,-0.32058 0.59532,-1.31871 v -1.17393 l -0.8599,0.13824 c -0.47294,0.076 -3.06255,0.38752 -5.75469,0.69221 -6.60798,0.74788 -6.88071,0.87792 -2.60998,1.24447 1.95459,0.16775 3.84746,0.42852 4.20637,0.57949 0.60959,0.25639 3.07409,0.16625 4.42288,-0.16177 z m 127.59532,24.2389 c -0.65484,-0.44369 -2.05383,-1.28734 -3.10885,-1.87479 -1.05503,-0.58745 -1.91823,-1.23593 -1.91823,-1.44106 0,-0.62547 0.61796,-0.42825 2.80204,0.89426 3.26427,1.9766 4.07623,2.54979 3.99089,2.81729 -0.15773,0.49442 -0.59758,0.39585 -1.76585,-0.3957 z m -60.28209,0.12025 c 0.10878,-0.56483 2.84385,-1.40383 8.9441,-2.74367 5.54832,-1.21862 8.69528,-1.6061 14.42862,-1.77658 5.70941,-0.16976 9.72901,0.11502 14.2875,1.01223 4.08438,0.80389 4.6302,0.98185 4.6302,1.50963 0,0.43766 -0.1527,0.42979 -2.40357,-0.12384 -6.02784,-1.48262 -16.54793,-2.0467 -22.33497,-1.19758 -5.84633,0.85782 -11.00645,1.93994 -15.47812,3.24587 -2.05254,0.59944 -2.17581,0.60383 -2.07376,0.0739 z M 77.833679,128.53731 c 0,-0.21618 0.710979,-0.75197 1.579955,-1.19062 1.850846,-0.93431 1.863617,-0.93662 1.846345,-0.33454 -0.0086,0.29851 -0.559498,0.72153 -1.550673,1.19062 -1.78147,0.84312 -1.875627,0.85992 -1.875627,0.33454 z m 84.203661,-0.0455 c -1.35932,-0.32207 -1.65364,-0.48777 -1.65364,-0.93099 0,-0.39498 0.11818,-0.49384 0.44187,-0.36963 0.24303,0.0933 0.98717,0.28896 1.65365,0.43489 1.89444,0.4148 2.13781,0.52012 2.13781,0.9252 0,0.45951 -0.43127,0.44957 -2.57969,-0.0595 z m 105.89948,-4.70103 c -2.99267,-1.97007 -3.95721,-2.53243 -6.61154,-3.85477 -1.52964,-0.76204 -2.78117,-1.55037 -2.78117,-1.75185 0,-0.56321 0.38178,-0.45797 2.86172,0.7888 4.07248,2.04742 8.58143,4.86437 8.44436,5.27557 -0.17265,0.51796 -0.57882,0.42079 -1.91337,-0.45775 z M 75.763758,122.66821 c 0.11435,-0.58994 5.016625,-3.04406 5.377212,-2.69187 0.347337,0.33924 -0.267316,0.79327 -2.838397,2.09667 -2.26848,1.15001 -2.664345,1.24281 -2.538815,0.5952 z m 85.862992,-1.20304 c -0.71519,-0.18967 -0.98093,-0.39204 -0.91952,-0.70026 0.15023,-0.75391 2.3223,-0.16078 2.3223,0.63415 0,0.43495 -0.0102,0.43543 -1.40278,0.0661 z M 73.735156,117.0282 c -0.08855,-0.14328 0.231843,-0.50257 0.711989,-0.79844 1.725848,-1.06349 6.608505,-3.48018 6.748493,-3.34019 0.410803,0.4108 -0.466743,1.06983 -3.532248,2.65269 -3.597889,1.85773 -3.679399,1.88857 -3.928234,1.48594 z m 89.984564,-1.95522 c -2.05164,-0.44087 -2.70175,-0.69101 -3.00884,-1.1577 -0.46026,-0.69946 -0.3228,-0.72038 1.41073,-0.21467 1.11138,0.32422 5.41356,1.20686 5.88251,1.20686 0.0845,0 -0.0775,0.17481 -0.35996,0.38846 -0.62951,0.47614 -0.6861,0.47292 -3.92444,-0.22295 z"
       id="path1"
       clip-path="url(#clipPath2)"
       transform="matrix(0.3044182,0,0,0.17434182,64.732387,85.638475)" /></g></svg>
